<svg width="14" height="14" viewBox="0 0 14 14" fill="none" xmlns="http://www.w3.org/2000/svg">
<path opacity="0.75" fill-rule="evenodd" clip-rule="evenodd" d="M7 14C10.866 14 14 10.866 14 7C14 3.13401 10.866 0 7 0C3.13401 0 0 3.13401 0 7C0 10.866 3.13401 14 7 14ZM3.25011 3.75003C3.25011 3.33581 3.58589 3.00003 4.00011 3.00003C4.41432 3.00003 4.75011 3.33581 4.75011 3.75003V6.25003H6.25043V3.75005C6.25043 3.33584 6.58622 3.00005 7.00043 3.00005C7.41465 3.00005 7.75043 3.33584 7.75043 3.75005V6.25003H9.24989V3.75005C9.24989 3.33584 9.58568 3.00005 9.99989 3.00005C10.4141 3.00005 10.7499 3.33584 10.7499 3.75005V10.2501C10.7499 10.6643 10.4141 11.0001 9.99989 11.0001C9.58568 11.0001 9.24989 10.6643 9.24989 10.2501V7.75003H7.75043V10.2501C7.75043 10.6643 7.41465 11.0001 7.00043 11.0001C6.58622 11.0001 6.25043 10.6643 6.25043 10.2501V7.75003H4.75011V10.25C4.75011 10.6642 4.41432 11 4.00011 11C3.58589 11 3.25011 10.6642 3.25011 10.25V3.75003Z" fill="white"/>
</svg>
